<svg width="350" height="70" viewBox="0 0 350 70" fill="none" xmlns="http://www.w3.org/2000/svg">
<path d="M1 69V11.7538L10.513 1H348.854L348.998 69H1Z" fill="#1D1D1D" stroke="#EC111A" stroke-width="2"/>
<path d="M43.3512 42L48.3312 27.4H52.9712L58.0912 42H55.1712L53.8312 38.12H47.4712L46.1912 42H43.3512ZM48.2712 35.72H53.0112L50.9912 29.78H50.2512L48.2712 35.72ZM65.1423 42.38C63.849 42.38 62.7556 42.1733 61.8623 41.76C60.969 41.3467 60.289 40.78 59.8223 40.06C59.369 39.34 59.1423 38.5133 59.1423 37.58H61.9223C61.9223 37.98 62.029 38.36 62.2423 38.72C62.4556 39.08 62.7956 39.3733 63.2623 39.6C63.7423 39.8267 64.369 39.94 65.1423 39.94C66.1823 39.94 66.9623 39.7267 67.4823 39.3C68.0023 38.8733 68.2623 38.3533 68.2623 37.74C68.2623 37.2333 68.0423 36.82 67.6023 36.5C67.1623 36.18 66.4823 35.98 65.5623 35.9L64.2823 35.8C62.8823 35.68 61.7623 35.2467 60.9223 34.5C60.0956 33.74 59.6823 32.74 59.6823 31.5C59.6823 30.58 59.8956 29.78 60.3223 29.1C60.7623 28.42 61.3823 27.9 62.1823 27.54C62.9823 27.1667 63.9156 26.98 64.9823 26.98C66.0756 26.98 67.0223 27.1733 67.8223 27.56C68.6356 27.9467 69.2623 28.4933 69.7023 29.2C70.1423 29.8933 70.3623 30.7133 70.3623 31.66H67.5823C67.5823 31.0733 67.3623 30.5533 66.9223 30.1C66.4956 29.6467 65.849 29.42 64.9823 29.42C64.129 29.42 63.4956 29.6267 63.0823 30.04C62.669 30.4533 62.4623 30.94 62.4623 31.5C62.4623 31.9533 62.6223 32.3533 62.9423 32.7C63.2756 33.0333 63.809 33.2267 64.5423 33.28L65.8223 33.4C66.8623 33.4933 67.769 33.72 68.5423 34.08C69.329 34.4267 69.9423 34.9067 70.3823 35.52C70.8223 36.1333 71.0423 36.8733 71.0423 37.74C71.0423 38.66 70.7956 39.4733 70.3023 40.18C69.8223 40.8733 69.1423 41.4133 68.2623 41.8C67.3823 42.1867 66.3423 42.38 65.1423 42.38ZM78.6189 42.38C77.3255 42.38 76.2322 42.1733 75.3389 41.76C74.4455 41.3467 73.7655 40.78 73.2989 40.06C72.8455 39.34 72.6189 38.5133 72.6189 37.58H75.3989C75.3989 37.98 75.5055 38.36 75.7189 38.72C75.9322 39.08 76.2722 39.3733 76.7389 39.6C77.2189 39.8267 77.8455 39.94 78.6189 39.94C79.6589 39.94 80.4389 39.7267 80.9589 39.3C81.4789 38.8733 81.7389 38.3533 81.7389 37.74C81.7389 37.2333 81.5189 36.82 81.0789 36.5C80.6389 36.18 79.9589 35.98 79.0389 35.9L77.7589 35.8C76.3589 35.68 75.2389 35.2467 74.3989 34.5C73.5722 33.74 73.1589 32.74 73.1589 31.5C73.1589 30.58 73.3722 29.78 73.7989 29.1C74.2389 28.42 74.8589 27.9 75.6589 27.54C76.4589 27.1667 77.3922 26.98 78.4589 26.98C79.5522 26.98 80.4989 27.1733 81.2989 27.56C82.1122 27.9467 82.7389 28.4933 83.1789 29.2C83.6189 29.8933 83.8389 30.7133 83.8389 31.66H81.0589C81.0589 31.0733 80.8389 30.5533 80.3989 30.1C79.9722 29.6467 79.3255 29.42 78.4589 29.42C77.6055 29.42 76.9722 29.6267 76.5589 30.04C76.1455 30.4533 75.9389 30.94 75.9389 31.5C75.9389 31.9533 76.0989 32.3533 76.4189 32.7C76.7522 33.0333 77.2855 33.2267 78.0189 33.28L79.2989 33.4C80.3389 33.4933 81.2455 33.72 82.0189 34.08C82.8055 34.4267 83.4189 34.9067 83.8589 35.52C84.2989 36.1333 84.5189 36.8733 84.5189 37.74C84.5189 38.66 84.2722 39.4733 83.7789 40.18C83.2989 40.8733 82.6189 41.4133 81.7389 41.8C80.8589 42.1867 79.8189 42.38 78.6189 42.38ZM87.1554 42V27.4H89.9954V42H87.1554ZM98.6189 42.38C97.3255 42.38 96.2322 42.1733 95.3389 41.76C94.4455 41.3467 93.7655 40.78 93.2989 40.06C92.8455 39.34 92.6189 38.5133 92.6189 37.58H95.3989C95.3989 37.98 95.5055 38.36 95.7189 38.72C95.9322 39.08 96.2722 39.3733 96.7389 39.6C97.2189 39.8267 97.8455 39.94 98.6189 39.94C99.6589 39.94 100.439 39.7267 100.959 39.3C101.479 38.8733 101.739 38.3533 101.739 37.74C101.739 37.2333 101.519 36.82 101.079 36.5C100.639 36.18 99.9589 35.98 99.0389 35.9L97.7589 35.8C96.3589 35.68 95.2389 35.2467 94.3989 34.5C93.5722 33.74 93.1589 32.74 93.1589 31.5C93.1589 30.58 93.3722 29.78 93.7989 29.1C94.2389 28.42 94.8589 27.9 95.6589 27.54C96.4589 27.1667 97.3922 26.98 98.4589 26.98C99.5522 26.98 100.499 27.1733 101.299 27.56C102.112 27.9467 102.739 28.4933 103.179 29.2C103.619 29.8933 103.839 30.7133 103.839 31.66H101.059C101.059 31.0733 100.839 30.5533 100.399 30.1C99.9722 29.6467 99.3255 29.42 98.4589 29.42C97.6055 29.42 96.9722 29.6267 96.5589 30.04C96.1455 30.4533 95.9389 30.94 95.9389 31.5C95.9389 31.9533 96.0989 32.3533 96.4189 32.7C96.7522 33.0333 97.2855 33.2267 98.0189 33.28L99.2989 33.4C100.339 33.4933 101.246 33.72 102.019 34.08C102.806 34.4267 103.419 34.9067 103.859 35.52C104.299 36.1333 104.519 36.8733 104.519 37.74C104.519 38.66 104.272 39.4733 103.779 40.18C103.299 40.8733 102.619 41.4133 101.739 41.8C100.859 42.1867 99.8189 42.38 98.6189 42.38ZM109.605 42V29.9H105.385V27.4H116.665V29.9H112.445V42H109.605ZM116.261 42L121.241 27.4H125.881L131.001 42H128.081L126.741 38.12H120.381L119.101 42H116.261ZM121.181 35.72H125.921L123.901 29.78H123.161L121.181 35.72ZM136.047 42L141.027 27.4H145.667L150.787 42H147.867L146.527 38.12H140.167L138.887 42H136.047ZM140.967 35.72H145.707L143.687 29.78H142.947L140.967 35.72ZM159.249 42.38C157.929 42.38 156.782 42.1467 155.809 41.68C154.836 41.2133 154.029 40.6067 153.389 39.86C152.762 39.1 152.296 38.2867 151.989 37.42C151.682 36.54 151.529 35.6933 151.529 34.88V34.44C151.529 33.5467 151.689 32.66 152.009 31.78C152.329 30.9 152.809 30.1 153.449 29.38C154.102 28.6467 154.909 28.0667 155.869 27.64C156.829 27.2 157.956 26.98 159.249 26.98C160.516 26.98 161.629 27.2 162.589 27.64C163.562 28.0667 164.369 28.6467 165.009 29.38C165.649 30.1 166.129 30.9 166.449 31.78C166.782 32.66 166.949 33.5467 166.949 34.44V34.88C166.949 35.6933 166.789 36.54 166.469 37.42C166.162 38.2867 165.689 39.1 165.049 39.86C164.422 40.6067 163.622 41.2133 162.649 41.68C161.689 42.1467 160.556 42.38 159.249 42.38ZM159.249 39.74C160.236 39.74 161.089 39.5133 161.809 39.06C162.529 38.5933 163.082 37.9733 163.469 37.2C163.869 36.4267 164.069 35.5867 164.069 34.68C164.069 33.72 163.869 32.86 163.469 32.1C163.082 31.3267 162.529 30.72 161.809 30.28C161.089 29.84 160.236 29.62 159.249 29.62C158.249 29.62 157.389 29.84 156.669 30.28C155.949 30.72 155.389 31.3267 154.989 32.1C154.602 32.86 154.409 33.72 154.409 34.68C154.409 35.5867 154.602 36.4267 154.989 37.2C155.376 37.9733 155.929 38.5933 156.649 39.06C157.382 39.5133 158.249 39.74 159.249 39.74ZM176.89 42V29.9H172.67V27.4H183.95V29.9H179.73V42H176.89ZM186.217 42V27.3H191.637C193.384 27.3 194.777 27.6933 195.817 28.48C196.857 29.2667 197.377 30.46 197.377 32.06V32.4C197.377 33.4933 197.124 34.3933 196.617 35.1C196.124 35.8067 195.437 36.3267 194.557 36.66L198.457 42H195.137L191.697 37.12H191.637H189.057V42H186.217ZM191.937 29.72H189.057V34.82H191.937C192.71 34.82 193.33 34.5867 193.797 34.12C194.264 33.6533 194.497 33.04 194.497 32.28C194.497 31.52 194.264 30.9067 193.797 30.44C193.33 29.96 192.71 29.72 191.937 29.72ZM199.172 42L204.152 27.4H208.792L213.912 42H210.992L209.652 38.12H203.292L202.012 42H199.172ZM204.092 35.72H208.832L206.812 29.78H206.072L204.092 35.72ZM216.12 42V27.4H218.96V42H216.12ZM222.604 42V27.4H225.444V39.5H231.344V42H222.604ZM233.658 42V27.4H242.498V29.8H236.438V33.38H242.138V35.78H236.438V39.6H242.658V42H233.658ZM245.572 42V27.3H250.992C252.739 27.3 254.132 27.6933 255.172 28.48C256.212 29.2667 256.732 30.46 256.732 32.06V32.4C256.732 33.4933 256.479 34.3933 255.972 35.1C255.479 35.8067 254.792 36.3267 253.912 36.66L257.812 42H254.492L251.052 37.12H250.992H248.412V42H245.572ZM251.292 29.72H248.412V34.82H251.292C252.066 34.82 252.686 34.5867 253.152 34.12C253.619 33.6533 253.852 33.04 253.852 32.28C253.852 31.52 253.619 30.9067 253.152 30.44C252.686 29.96 252.066 29.72 251.292 29.72Z" fill="#F9F9F9"/>
<path d="M287.579 26.5L301.579 35.5L287.579 44.5V26.5Z" stroke="#F9F9F9" stroke-width="2" stroke-linecap="round" stroke-linejoin="round"/>
</svg>
